nColumns=19
nRows=50
DataType=double
version=3
OpenSimVersion=4.1
endheader
time	ground_force_calcn_r_vx	ground_force_calcn_r_vy	ground_force_calcn_r_vz	ground_force_calcn_r_px	ground_force_calcn_r_py	ground_force_calcn_r_pz	ground_force_calcn_r_mx	ground_force_calcn_r_my	ground_force_calcn_r_mz	ground_force_calcn_l_vx	ground_force_calcn_l_vy	ground_force_calcn_l_vz	ground_force_calcn_l_px	ground_force_calcn_l_py	ground_force_calcn_l_pz	ground_force_calcn_l_mx	ground_force_calcn_l_my	ground_force_calcn_l_mz
0.008333	0	0	0	0	0	0	0	0	0	0	0	0	0	0	0	0	0	0
0.016667	0	0	0	0	0	0	0	0	0	0	0	0	0	0	0	0	0	0
0.025	0	0	0	0	0	0	0	0	0	0	0	0	0	0	0	0	0	0
0.033333	0	0	0	0	0	0	0	0	0	0	0	0	0	0	0	0	0	0
0.041667	0	0	0	0	0	0	0	0	0	0	0	0	0	0	0	0	0	0
0.05	0	0	0	0	0	0	0	0	0	0	0	0	0	0	0	0	0	0
0.058333	0	0	0	0	0	0	0	0	0	0	0	0	0	0	0	0	0	0
0.066667	0	0	0	0	0	0	0	0	0	0	0	0	0	0	0	0	0	0
0.075	0	0	0	0	0	0	0	0	0	0	0	0	0	0	0	0	0	0
0.083333	0	0	0	0	0	0	0	0	0	0	0	0	0	0	0	0	0	0
0.091667	0	0	0	0	0	0	0	0	0	0	0	0	0	0	0	0	0	0
0.1	-0.850783	11.5326	-0.515635	0.706225	0	-0.148249	-0.0484161	0.656295	-0.0293436	0	0	0	0	0	0	0	0	0
0.108333	-7.28121	28.3289	-4.4122	0.865029	0	-0.274982	-0.129879	0.505319	-0.0787031	0	0	0	0	0	0	0	0	0
0.116667	-28.2797	81.2104	-10.1338	0.913953	0	-0.335383	-0.0827409	0.237605	-0.0296496	0	0	0	0	0	0	0	0	0
0.125	-68.0744	219.383	-15.0717	0.923468	0	-0.355127	0.14062	-0.453175	0.0311332	0	0	0	0	0	0	0	0	0
0.133333	-116.881	492.344	-13.8283	0.925445	0	-0.359819	0.423227	-1.78278	0.0500723	0	0	0	0	0	0	0	0	0
0.141667	-153.529	865.608	-1.88164	0.923039	0	-0.358939	0.637077	-3.5919	0.00780799	0	0	0	0	0	0	0	0	0
0.15	-171.007	1187.55	16.7929	0.914849	0	-0.35626	0.77378	-5.37346	-0.0759854	0	0	0	0	0	0	0	0	0
0.158333	-189.602	1350.31	27.6576	0.901038	0	-0.353673	0.914937	-6.51599	-0.133464	0	0	0	0	0	0	0	0	0
0.166667	-221.458	1407.66	18.6065	0.881754	0	-0.35247	1.0391	-6.60482	-0.0873026	0	0	0	0	0	0	0	0	0
0.175	-242.391	1463.82	-4.75263	0.856149	0	-0.352276	0.931244	-5.62386	0.0182592	0	0	0	0	0	0	0	0	0
0.183333	-228.721	1557.78	-24.2697	0.825186	0	-0.350719	0.563385	-3.83712	0.0597811	0	0	0	0	0	0	0	0	0
0.191667	-185.859	1660.73	-29.9164	0.792902	0	-0.34722	0.175816	-1.57099	0.0282998	0	0	0	0	0	0	0	0	0
0.2	-129.579	1726.58	-28.3763	0.761979	0	-0.343772	-0.062091	0.827338	-0.0135973	0	0	0	0	0	0	0	0	0
0.208333	-67.9157	1731.95	-30.1548	0.731285	0	-0.341901	-0.11863	3.02526	-0.0526724	0	0	0	0	0	0	0	0	0
0.216667	-2.38378	1682.33	-35.3802	0.698813	0	-0.340909	-0.00668818	4.72012	-0.0992662	0	0	0	0	0	0	0	0	0
0.225	63.6075	1594.06	-36.3057	0.664507	0	-0.339372	0.225763	5.6578	-0.12886	0	0	0	0	0	0	0	0	0
0.233333	125.159	1476.05	-28.6638	0.629203	0	-0.337294	0.483717	5.70466	-0.110781	0	0	0	0	0	0	0	0	0
0.241667	177.555	1330.16	-15.1915	0.593818	0	-0.335838	0.65583	4.91317	-0.0561123	0	0	0	0	0	0	0	0	0
0.25	214.139	1157.49	-0.440098	0.559486	0	-0.335596	0.651872	3.52359	-0.00133973	0	0	0	0	0	0	0	0	0
0.258333	231.408	963.236	12.8546	0.526939	0	-0.335915	0.453627	1.88822	0.0251986	0	0	0	0	0	0	0	0	0
0.266667	231.344	758.287	22.9923	0.496392	0	-0.335862	0.111957	0.366967	0.011127	0	0	0	0	0	0	0	0	0
0.275	215.686	557.77	28.5297	0.467768	0	-0.334748	-0.291704	-0.754353	-0.0385849	0	0	0	0	0	0	0	0	0
0.283333	182.336	377.541	28.82	0.44085	0	-0.331971	-0.648048	-1.34183	-0.102431	0	0	0	0	0	0	0	0	0
0.291667	133.889	230.475	24.5045	0.414698	0	-0.327344	-0.848596	-1.46076	-0.15531	0	0	0	0	0	0	0	0	0
0.3	82.865	124.424	17.6054	0.388512	0	-0.32083	-0.866601	-1.30123	-0.184117	0	0	0	0	0	0	0	0	0
0.308333	42.9065	59.1828	10.9274	0.376472	0	-0.307261	-0.764698	-1.05478	-0.194754	0	0	0	0	0	0	0	0	0
0.316667	19.2573	26.2181	6.47114	0.452659	0	-0.262204	-0.629919	-0.857612	-0.211675	0	0	0	0	0	0	0	0	0
0.325	8.23894	12.6691	4.29394	0.711711	0	-0.157166	-0.511889	-0.787135	-0.266785	0	0	0	0	0	0	0	0	0
0.333333	0	0	0	0	0	0	0	0	0	0	0	0	0	0	0	0	0	0
0.341667	0	0	0	0	0	0	0	0	0	0	0	0	0	0	0	0	0	0
0.35	0	0	0	0	0	0	0	0	0	0	0	0	0	0	0	0	0	0
0.358333	0	0	0	0	0	0	0	0	0	0	0	0	0	0	0	0	0	0
0.366667	0	0	0	0	0	0	0	0	0	0	0	0	0	0	0	0	0	0
0.375	0	0	0	0	0	0	0	0	0	0	0	0	0	0	0	0	0	0
0.383333	0	0	0	0	0	0	0	0	0	0	0	0	0	0	0	0	0	0
0.391667	0	0	0	0	0	0	0	0	0	0	0	0	0	0	0	0	0	0
0.4	0	0	0	0	0	0	0	0	0	-1.8721	18.1576	-1.71157	0.794402	0	-0.225654	0.0314602	-0.305135	0.0287625
0.408333	0	0	0	0	0	0	0	0	0	-15.8355	43.5696	-4.60105	0.84927	0	-0.362674	0.116095	-0.319421	0.0337316
0.416667	0	0	0	0	0	0	0	0	0	-45.6699	119.898	-6.56667	0.904912	0	-0.423623	0.217395	-0.570729	0.0312582
